<svg width="26" height="26" viewBox="0 0 26 26" fill="none" xmlns="http://www.w3.org/2000/svg">
<g id="Group">
<path id="Vector" d="M18.2499 10.9583C17.1241 10.9583 16.2083 11.8765 16.2083 13C16.2083 14.1235 17.1229 15.0417 18.2499 15.0417C19.3746 15.0417 20.2916 14.1247 20.2916 13C20.2916 11.8753 19.3746 10.9583 18.2499 10.9583ZM18.2499 13.875C17.7669 13.875 17.3749 13.483 17.3749 13C17.3749 12.5182 17.7681 12.125 18.2499 12.125C18.7318 12.125 19.1249 12.517 19.1249 13C19.1249 13.4818 18.7329 13.875 18.2499 13.875ZM12.9999 10.9583C11.8729 10.9583 10.9583 11.8765 10.9583 13C10.9583 14.1235 11.8741 15.0417 12.9999 15.0417C14.1258 15.0417 15.0416 14.1247 15.0416 13C15.0416 11.8753 14.1269 10.9583 12.9999 10.9583ZM12.9999 13.875C12.5169 13.875 12.1249 13.483 12.1249 13C12.1249 12.5182 12.5181 12.125 12.9999 12.125C13.4818 12.125 13.8749 12.517 13.8749 13C13.8749 13.4818 13.4829 13.875 12.9999 13.875ZM7.74992 10.9583C6.62409 10.9583 5.70825 11.8765 5.70825 13C5.70825 14.1235 6.62409 15.0417 7.74992 15.0417C8.87458 15.0417 9.79158 14.1247 9.79158 13C9.79158 11.8753 8.87342 10.9583 7.74992 10.9583ZM7.74992 13.875C7.26692 13.875 6.87492 13.483 6.87492 13C6.87492 12.5182 7.26809 12.125 7.74992 12.125C8.23175 12.125 8.62492 12.517 8.62492 13C8.62492 13.4818 8.23292 13.875 7.74992 13.875Z" fill="white"/>
<path id="Vector_2" d="M12.9999 25.5417C6.08392 25.5417 0.458252 19.916 0.458252 13C0.458252 6.084 6.08392 0.458336 12.9999 0.458336C19.9159 0.458336 25.5416 6.084 25.5416 13C25.5416 19.916 19.9159 25.5417 12.9999 25.5417ZM12.9999 2.20834C7.04992 2.20834 2.20825 7.05 2.20825 13C2.20825 18.95 7.04992 23.7917 12.9999 23.7917C18.9499 23.7917 23.7916 18.95 23.7916 13C23.7916 7.05 18.9499 2.20834 12.9999 2.20834Z" fill="white"/>
</g>
</svg>
