<svg width="24" height="24" viewBox="0 0 24 24" fill="none" xmlns="http://www.w3.org/2000/svg">
<g id="Group">
<path id="Vector" d="M23.3132 17.2127C23.2899 17.194 20.8166 15.2993 20.8597 10.1777C20.8831 7.22366 19.9124 4.59866 18.1216 2.78683C16.5174 1.16166 14.3451 0.26333 12.0059 0.251663H11.9907C9.65275 0.26333 7.48042 1.16166 5.87508 2.788C4.08542 4.59983 3.11242 7.22366 3.13808 10.1777C3.18125 15.2293 0.781416 17.1392 0.685749 17.2127C0.382416 17.4378 0.258749 17.831 0.376582 18.1903C0.495582 18.5497 0.831583 18.7912 1.20725 18.7912H6.94725C7.06625 21.4862 9.27708 23.6445 11.9989 23.6445C14.7207 23.6445 16.9292 21.4862 17.0471 18.7912H22.7894C23.1651 18.7912 23.5011 18.5508 23.6177 18.1915C23.7379 17.8333 23.6142 17.439 23.3109 17.2138L23.3132 17.2127ZM12.0001 21.891C10.2442 21.891 8.81508 20.5178 8.70075 18.79H15.2994C15.1827 20.5167 13.7559 21.8933 12.0001 21.8933V21.891ZM3.11008 17.04C3.97342 15.7193 4.91608 13.5073 4.88808 10.1613C4.86708 7.64133 5.63942 5.51566 7.11992 4.0165C8.39508 2.725 10.1299 2.00983 12.0001 2.00166C13.8702 2.011 15.6016 2.725 16.8767 4.01766C18.3584 5.51683 19.1319 7.64133 19.1109 10.1625C19.0829 13.5085 20.0268 15.7217 20.8901 17.0412H3.11008V17.04Z" fill="white"/>
</g>
</svg>
