<svg width="22" height="25" viewBox="0 0 22 25" fill="none" xmlns="http://www.w3.org/2000/svg">
<g id="Group">
<path id="Vector" d="M20.2168 24.4167C20.0336 24.4167 19.8528 24.3583 19.7011 24.2487L11.0001 17.916L2.29911 24.251C2.03311 24.4423 1.68078 24.4727 1.38678 24.321C1.09511 24.1728 0.908447 23.8718 0.908447 23.5428V3.53333C0.908447 2.08667 2.08678 0.908333 3.53345 0.908333H18.4644C19.9111 0.908333 21.0894 2.08667 21.0894 3.53333V23.5417C21.0894 23.8707 20.9051 24.1717 20.6111 24.321C20.4874 24.3852 20.3509 24.4167 20.2144 24.4167H20.2168ZM11.0001 15.9583C11.1809 15.9583 11.3618 16.0143 11.5134 16.1263L19.3418 21.8232V3.53333C19.3418 3.05267 18.9486 2.65833 18.4668 2.65833H3.53345C3.05161 2.65833 2.65845 3.05267 2.65845 3.53333V21.8232L10.4868 16.1263C10.6384 16.0143 10.8193 15.9583 11.0001 15.9583Z" fill="white"/>
</g>
</svg>
