<svg width="20" height="25" viewBox="0 0 20 25" fill="none" xmlns="http://www.w3.org/2000/svg">
<g id="Group">
<path id="Vector" d="M9.99989 12.7853C11.5807 12.7853 13.3506 12.6103 14.4799 11.32C15.4296 10.235 15.7376 8.55733 15.4202 6.196C14.9769 2.90017 12.9504 0.931999 9.99989 0.931999C7.04939 0.931999 5.02289 2.90017 4.57956 6.19833C4.26222 8.55733 4.57022 10.235 5.51989 11.32C6.64922 12.6115 8.41906 12.7853 9.99989 12.7853ZM6.31322 6.42933C6.50222 5.02933 7.23139 2.682 9.99989 2.682C12.7684 2.682 13.4976 5.0305 13.6866 6.42933C13.9281 8.23767 13.7531 9.49417 13.1616 10.1685C12.6307 10.7752 11.6846 11.0353 9.99989 11.0353C8.31522 11.0353 7.36906 10.7752 6.83822 10.1685C6.24672 9.49417 6.07172 8.2365 6.31322 6.42933ZM19.6599 21.442C18.6367 17.3283 14.6642 14.4537 9.99989 14.4537C5.33556 14.4537 1.36306 17.3283 0.339889 21.442C0.139223 22.2493 0.307222 23.0753 0.800722 23.7053C1.27672 24.312 2.01406 24.662 2.82256 24.662H17.1772C17.9857 24.662 18.7231 24.312 19.1991 23.7053C19.6937 23.0753 19.8606 22.2505 19.6587 21.442H19.6599ZM17.8212 22.6273C17.6742 22.814 17.4526 22.9143 17.1772 22.9143H2.82256C2.54839 22.9143 2.32556 22.8152 2.17856 22.6273C2.01872 22.4243 1.96856 22.1467 2.03856 21.8643C2.86689 18.5335 6.14172 16.206 9.99989 16.206C13.8581 16.206 17.1329 18.5323 17.9612 21.8643C18.0312 22.1467 17.9811 22.4243 17.8212 22.6273Z" fill="white"/>
</g>
</svg>
