<svg width="24" height="22" viewBox="0 0 24 22" fill="none" xmlns="http://www.w3.org/2000/svg">
<g id="Group">
<path id="Vector" d="M20.4583 0.520996H3.54159C1.77175 0.520996 0.333252 1.96066 0.333252 3.73166V18.3092C0.333252 20.0802 1.77175 21.521 3.54159 21.521H20.4583C22.2281 21.521 23.6666 20.0802 23.6666 18.3092V3.73166C23.6666 1.96066 22.2281 0.520996 20.4583 0.520996ZM3.54159 2.271H20.4583C21.2633 2.271 21.9166 2.92433 21.9166 3.72933V4.56233L12.5249 10.8238C12.2064 11.0338 11.7946 11.0362 11.4749 10.8215L2.08325 4.56233V3.72933C2.08325 2.92433 2.73659 2.271 3.54159 2.271ZM20.4583 19.7687H3.54159C2.73659 19.7687 2.08325 19.1153 2.08325 18.3103V6.61333L10.5299 12.2483C10.9768 12.547 11.4889 12.6963 11.9999 12.6963C12.5133 12.6963 13.0231 12.547 13.4699 12.2495L21.9166 6.6145V18.3068C21.9166 19.1118 21.2633 19.7652 20.4583 19.7652V19.7687Z" fill="white"/>
</g>
</svg>
